<svg width="18" height="18" viewBox="0 0 18 18" fill="none" xmlns="http://www.w3.org/2000/svg">
<path fill-rule="evenodd" clip-rule="evenodd" d="M5.6012 3C5.38134 3.00008 5.16418 3.0485 4.96511 3.14181C4.76603 3.23513 4.58991 3.37106 4.4492 3.54L1.3622 7.2435C1.12255 7.53115 0.99914 7.89802 1.01621 8.27202C1.03328 8.64603 1.1896 9.00013 1.45445 9.26475L7.9397 15.75C8.22099 16.0312 8.60245 16.1892 9.0002 16.1892C9.39794 16.1892 9.77941 16.0312 10.0607 15.75L16.5459 9.26475C16.8107 9.00003 16.9669 8.64588 16.9838 8.27188C17.0007 7.89787 16.8772 7.53106 16.6374 7.2435L13.5512 3.54C13.4105 3.37106 13.2344 3.23513 13.0353 3.14181C12.8362 3.0485 12.6191 3.00008 12.3992 3H5.6012ZM15.4854 8.20425L9.0002 14.6895L2.51495 8.20425H15.4854Z" fill="#D97706"/>
</svg>
